<svg width="16" height="16" viewBox="0 0 500 500" xmlns="http://www.w3.org/2000/svg">
	<path d="M370.523 65.593L382.371 77.0584L374.964 84.4645L361.464 97.9644L335.464 123.964L311.464 147.964L283.964 175.464L258.464 200.964L233.464 225.964L213.964 245.464L210.429 249L213.964 252.536L236.964 275.536L261.964 300.536L287.464 326.036L311.964 350.536L336.964 375.536L361.464 400.036L373.464 412.036L383.429 422L371.464 433.964L357.964 447.464L344.964 460.464L337.5 467.929L328.536 458.964L316.536 446.964L305.036 435.464L290.536 420.964L279.036 409.464L266.536 396.964L256.036 386.464L240.536 370.964L228.536 358.964L216.036 346.464L204.536 334.964L190.536 320.964L179.036 309.464L165.536 295.964L153.536 283.964L140.536 270.964L128.036 258.464L118.571 249L126.036 241.536L139.536 228.036L152.036 215.536L164.536 203.036L176.536 191.036L189.036 178.536L202.536 165.036L214.536 153.036L226.536 141.036L239.036 128.536L252.536 115.036L264.536 103.036L278.036 89.5355L290.536 77.0355L302.536 65.0355L314.036 53.5355L327.036 40.5355L335.633 31.9377L345.57 41.1381L358.001 53.0717L370.464 65.5355L370.493 65.5645L370.523 65.593Z" />
</svg>