<?xml version="1.0" standalone="no"?>
<!DOCTYPE svg PUBLIC "-//W3C//DTD SVG 20010904//EN"
 "http://www.w3.org/TR/2001/REC-SVG-20010904/DTD/svg10.dtd">
<svg version="1.0" xmlns="http://www.w3.org/2000/svg"
 width="700.000000pt" height="700.000000pt" viewBox="0 0 700.000000 700.000000"
 preserveAspectRatio="xMidYMid meet">
<metadata>
Created by potrace 1.14, written by Peter Selinger 2001-2017
</metadata>
<g transform="translate(0.000000,700.000000) scale(0.100000,-0.100000)"
fill="#000000" stroke="none">
<path d="M15 5423 c8 -27 49 -156 90 -288 42 -132 98 -310 125 -395 27 -85 67
-213 90 -285 23 -71 78 -245 122 -385 44 -140 87 -275 95 -300 8 -25 16 -52
18 -60 2 -8 58 -186 125 -395 67 -209 123 -387 125 -395 10 -42 424 -1343 429
-1347 6 -7 1196 -6 1203 1 4 4 -25 101 -127 421 -21 66 -62 194 -90 285 -28
91 -54 172 -57 180 -3 8 -7 20 -8 25 -2 6 -25 82 -53 170 -28 88 -107 340
-177 560 -69 220 -139 441 -155 491 -16 50 -43 133 -59 185 -29 93 -70 222
-353 1119 l-144 455 -606 3 -607 2 14 -47z"/>
<path d="M1520 5465 c0 -2 6 -24 14 -47 8 -24 40 -124 71 -223 31 -99 62 -198
69 -220 16 -47 36 -109 106 -335 28 -91 57 -183 65 -205 7 -22 32 -101 55
-175 23 -74 48 -153 55 -175 8 -22 37 -114 65 -205 28 -91 55 -175 60 -187
l10 -23 604 0 c480 0 605 3 601 13 -4 11 -34 108 -185 587 -34 107 -90 285
-125 395 -92 291 -168 533 -213 675 l-39 125 -607 3 c-333 1 -606 0 -606 -3z"/>
<path d="M4560 5461 c0 -4 45 -151 101 -326 55 -176 103 -326 105 -334 2 -9
44 -144 94 -301 50 -157 114 -357 141 -445 28 -88 94 -295 146 -460 53 -164
96 -304 97 -310 1 -5 28 -91 60 -190 31 -99 73 -229 92 -290 19 -60 45 -144
59 -185 13 -41 47 -149 75 -240 29 -91 69 -219 90 -285 21 -66 64 -201 95
-300 31 -99 61 -191 66 -205 l9 -25 601 1 c330 1 602 3 604 5 2 2 -15 60 -37
129 -35 109 -106 334 -332 1050 -30 96 -67 213 -81 260 -15 47 -72 227 -127
400 -55 173 -110 349 -123 390 -12 41 -37 118 -53 170 -44 134 -268 843 -368
1165 -47 149 -90 285 -96 303 l-12 32 -603 0 c-332 0 -603 -4 -603 -9z"/>
<path d="M3828 3382 c-71 -1 -128 -5 -128 -8 0 -6 328 -1050 337 -1074 3 -8 7
-20 9 -27 1 -7 14 -47 27 -90 14 -43 56 -172 92 -288 37 -115 75 -237 86 -270
l19 -60 602 3 c565 2 603 3 600 20 -3 16 -36 125 -157 507 -31 99 -68 216 -82
260 -14 44 -42 134 -63 200 -43 136 -133 421 -210 665 l-52 165 -477 0 c-262
0 -533 -1 -603 -3z"/>
<path d="M2180 3373 c0 -4 6 -25 14 -48 8 -22 38 -114 66 -205 28 -91 57 -183
65 -205 7 -22 34 -107 60 -190 26 -82 62 -197 80 -255 61 -192 147 -464 167
-530 11 -36 23 -74 28 -85 5 -11 11 -29 13 -40 3 -11 19 -65 37 -120 18 -55
32 -106 33 -112 0 -8 16 -13 41 -13 402 -3 1168 -1 1172 3 3 2 -9 49 -27 103
-17 55 -50 160 -74 234 -24 74 -62 196 -85 270 -23 74 -50 160 -60 190 -10 30
-37 116 -61 190 -23 74 -52 169 -66 210 -28 88 -76 243 -78 250 -3 14 -98 309
-107 333 l-10 27 -604 0 c-332 0 -604 -3 -604 -7z"/>
</g>
</svg>
