<?xml version="1.0" standalone="no"?>
<!DOCTYPE svg PUBLIC "-//W3C//DTD SVG 20010904//EN"
 "http://www.w3.org/TR/2001/REC-SVG-20010904/DTD/svg10.dtd">
<svg version="1.0" xmlns="http://www.w3.org/2000/svg"
 width="1840.000000pt" height="1840.000000pt" viewBox="0 0 1840.000000 1840.000000"
 preserveAspectRatio="xMidYMid meet">
<metadata>
Created by potrace 1.11, written by Peter Selinger 2001-2013
</metadata>
<g transform="translate(0.000000,1840.000000) scale(0.100000,-0.100000)"
fill="#000000" stroke="none">
<path d="M15 14158 c7 -24 34 -108 60 -188 26 -80 82 -257 126 -395 44 -137
102 -317 129 -400 26 -82 69 -217 95 -300 26 -82 60 -188 75 -235 16 -47 56
-173 90 -280 34 -107 84 -262 110 -345 27 -82 76 -238 110 -345 34 -107 70
-220 80 -250 10 -30 51 -156 90 -280 39 -124 78 -242 86 -263 7 -20 13 -38 13
-40 -1 -1 17 -60 41 -132 23 -71 54 -170 70 -220 15 -49 46 -146 68 -215 22
-69 95 -296 162 -504 66 -209 129 -405 139 -435 10 -31 30 -92 44 -136 67
-212 151 -476 167 -525 17 -48 56 -172 206 -645 20 -60 57 -177 84 -260 26
-82 80 -251 120 -375 39 -124 75 -236 80 -250 5 -14 36 -113 70 -220 34 -107
70 -220 80 -250 10 -30 46 -143 80 -250 34 -107 72 -226 85 -265 12 -38 39
-124 60 -190 20 -66 39 -127 43 -135 3 -8 6 -19 8 -25 2 -5 28 -86 58 -180 30
-93 72 -226 94 -295 22 -69 61 -190 87 -270 26 -80 62 -192 80 -250 18 -58 69
-217 113 -355 l80 -250 1601 -3 c1279 -2 1600 0 1596 10 -2 7 -24 76 -48 153
-25 77 -66 208 -92 290 -26 83 -49 157 -52 165 -4 8 -7 17 -8 20 -2 11 -88
278 -105 330 -10 30 -51 156 -90 280 -39 124 -75 236 -80 250 -8 23 -105 326
-187 585 -19 61 -38 121 -43 135 -5 14 -39 120 -75 235 -58 183 -135 423 -219
685 -51 157 -259 811 -297 930 -22 69 -46 143 -53 165 -8 22 -40 121 -71 220
-31 99 -63 198 -70 220 -8 22 -46 141 -85 265 -39 124 -93 293 -120 375 -26
83 -64 200 -83 260 -19 61 -72 225 -117 365 -45 140 -93 291 -107 335 -14 44
-33 105 -43 135 -10 30 -51 156 -90 280 -39 124 -75 236 -79 250 -5 14 -23 70
-41 125 -17 55 -34 107 -37 115 -4 8 -7 20 -8 26 -4 19 -87 278 -96 299 -4 11
-31 94 -59 185 -28 91 -55 176 -60 190 -5 14 -41 126 -80 250 -39 124 -84 263
-100 310 -15 47 -49 153 -75 235 -26 83 -69 218 -95 300 -27 83 -85 265 -130
405 -45 140 -108 336 -140 435 l-58 180 -1600 3 -1600 2 13 -42z"/>
<path d="M4024 14128 c46 -148 89 -284 97 -303 7 -18 48 -145 164 -515 19 -58
75 -233 125 -390 51 -157 104 -325 120 -375 16 -49 47 -148 70 -220 23 -71 59
-184 80 -250 21 -66 45 -140 53 -165 8 -25 45 -139 81 -255 37 -115 80 -250
96 -300 40 -122 140 -433 151 -470 5 -16 31 -97 58 -180 26 -82 58 -184 70
-225 13 -41 27 -84 31 -95 5 -11 36 -108 70 -215 34 -107 79 -249 100 -315 22
-66 49 -150 60 -187 l22 -68 1599 0 c879 0 1599 2 1599 3 0 2 -9 30 -19 63
-11 32 -51 160 -91 284 -39 124 -75 236 -80 250 -5 14 -41 126 -80 250 -111
351 -230 722 -240 750 -5 14 -39 120 -75 235 -36 116 -72 228 -80 250 -7 22
-46 141 -85 265 -102 322 -139 436 -220 690 -75 235 -114 354 -226 705 -73
229 -145 453 -222 695 l-50 155 -1600 3 -1600 2 22 -72z"/>
<path d="M12003 14193 c4 -8 108 -329 112 -347 1 -6 5 -18 8 -26 3 -8 36 -109
72 -225 37 -115 105 -329 152 -475 46 -146 112 -350 145 -455 33 -104 75 -235
93 -290 18 -55 54 -167 80 -250 26 -82 57 -181 70 -220 13 -38 56 -171 95
-295 39 -124 93 -292 120 -375 26 -82 60 -188 74 -235 15 -47 30 -94 35 -105
5 -11 13 -36 19 -55 16 -56 64 -207 146 -462 42 -131 110 -345 152 -475 41
-131 84 -263 94 -293 10 -30 42 -129 70 -220 29 -91 58 -183 66 -205 12 -37
116 -361 201 -630 19 -60 41 -128 48 -150 8 -22 44 -134 80 -250 37 -115 73
-228 80 -250 7 -22 44 -134 80 -250 69 -217 112 -353 195 -610 27 -82 51 -161
55 -175 3 -14 10 -34 15 -45 5 -11 32 -94 60 -185 28 -91 60 -190 70 -220 10
-30 32 -98 48 -150 65 -206 174 -546 182 -570 5 -14 41 -126 80 -250 39 -124
78 -243 85 -265 8 -22 44 -134 80 -250 37 -115 82 -257 101 -315 30 -96 120
-377 129 -407 4 -10 333 -13 1604 -13 l1600 0 -9 27 c-5 16 -27 87 -50 158
-22 72 -56 177 -75 235 -18 58 -61 193 -95 300 -34 107 -72 227 -85 265 -28
83 -148 462 -177 555 -11 36 -23 74 -28 85 -4 11 -31 94 -60 185 -28 91 -73
233 -100 315 -58 181 -158 494 -212 665 -22 69 -50 157 -63 195 -22 70 -101
317 -177 555 -21 69 -50 157 -62 195 -13 39 -35 106 -49 150 -51 161 -149 471
-162 510 -8 22 -34 103 -58 180 -149 467 -194 606 -237 740 -27 83 -64 200
-83 260 -19 61 -70 218 -112 350 -42 132 -90 283 -107 335 -16 52 -38 120 -48
150 -10 30 -51 156 -90 280 -39 124 -75 236 -80 250 -5 14 -36 113 -70 220
-34 107 -68 213 -75 235 -8 22 -44 135 -80 250 -37 116 -76 239 -88 275 -12
36 -22 67 -22 70 0 3 -13 41 -27 85 -15 44 -59 181 -98 305 -39 124 -75 233
-80 242 -6 10 -10 23 -10 30 0 6 -33 115 -74 242 -41 127 -107 332 -146 456
-74 232 -145 453 -185 575 l-23 70 -1602 3 c-881 1 -1599 -1 -1597 -5z"/>
<path d="M5730 8797 c0 -1 17 -56 39 -122 62 -194 161 -504 188 -590 14 -44
36 -111 49 -150 12 -38 53 -164 89 -280 37 -115 89 -277 115 -360 43 -134 113
-352 225 -705 20 -63 59 -182 85 -265 27 -82 72 -224 100 -315 29 -91 55 -172
58 -180 3 -8 6 -17 7 -20 0 -3 10 -34 22 -70 12 -36 51 -159 88 -275 36 -115
77 -241 90 -280 13 -38 35 -108 50 -155 14 -47 46 -146 70 -220 24 -74 75
-236 115 -360 39 -124 73 -231 75 -237 4 -10 333 -13 1604 -13 1276 0 1600 3
1596 13 -2 6 -36 113 -75 237 -102 321 -136 427 -185 580 -24 74 -58 180 -75
235 -18 55 -38 118 -45 140 -15 43 -66 202 -169 530 -37 116 -73 228 -81 250
-7 22 -44 135 -80 250 -37 116 -86 271 -110 345 -24 74 -76 236 -115 360 -39
124 -94 293 -120 375 -27 83 -83 258 -125 390 -42 132 -98 308 -125 390 -26
83 -73 230 -104 328 l-57 177 -1600 0 c-879 0 -1599 -1 -1599 -3z"/>
<path d="M9730 8797 c0 -2 56 -176 109 -342 16 -49 64 -198 106 -330 42 -132
96 -301 120 -375 24 -74 78 -243 120 -375 42 -132 96 -301 120 -375 24 -74 73
-229 110 -345 69 -217 122 -383 205 -640 60 -188 165 -518 265 -830 42 -132
80 -251 85 -265 5 -14 36 -113 70 -220 34 -107 80 -251 102 -320 22 -69 43
-136 47 -150 l8 -25 1602 -3 c1281 -2 1602 0 1598 10 -6 18 -155 482 -173 543
-9 28 -18 57 -21 65 -4 8 -7 17 -8 20 -2 11 -88 278 -105 330 -20 59 -148 462
-181 570 -11 36 -24 74 -29 85 -4 11 -17 49 -28 85 -25 82 -159 502 -177 555
-7 22 -39 121 -70 220 -73 230 -131 411 -160 500 -22 69 -83 259 -230 720 -42
132 -96 301 -120 375 -24 74 -71 222 -105 328 l-62 192 -1599 0 c-879 0 -1599
-1 -1599 -3z"/>
</g>
</svg>
