<?xml version="1.0" standalone="no"?>
<!DOCTYPE svg PUBLIC "-//W3C//DTD SVG 20010904//EN"
 "http://www.w3.org/TR/2001/REC-SVG-20010904/DTD/svg10.dtd">
<svg version="1.0" xmlns="http://www.w3.org/2000/svg"
 width="700.000000pt" height="700.000000pt" viewBox="0 0 700.000000 700.000000"
 preserveAspectRatio="xMidYMid meet">
<metadata>
Created by potrace 1.14, written by Peter Selinger 2001-2017
</metadata>
<g transform="translate(0.000000,700.000000) scale(0.100000,-0.100000)"
fill="#000000" stroke="none">
<path d="M16 5400 c-11 -4 -3 -39 36 -160 117 -366 241 -753 364 -1140 41
-129 79 -246 84 -260 5 -14 41 -126 80 -250 40 -124 92 -288 117 -365 25 -77
56 -176 70 -220 14 -44 33 -105 43 -135 10 -30 66 -206 125 -390 58 -184 112
-353 120 -375 7 -22 43 -134 80 -250 77 -246 81 -255 97 -256 66 -4 1190 0
1194 4 3 3 -22 92 -56 199 -34 106 -82 256 -107 333 -24 77 -48 151 -53 165
-5 14 -36 113 -70 220 -34 107 -68 213 -75 235 -8 22 -46 141 -85 265 -75 236
-129 405 -210 655 -26 83 -78 245 -115 360 -36 116 -70 219 -74 230 -5 11 -25
74 -46 140 -49 160 -94 300 -150 475 -26 80 -73 228 -106 329 -32 101 -60 186
-63 189 -7 6 -1182 9 -1200 2z"/>
<path d="M1542 5400 c-18 -5 -17 -10 14 -105 29 -92 125 -391 211 -660 19 -60
57 -177 83 -260 27 -82 83 -258 125 -390 42 -132 84 -261 92 -287 l15 -47 609
0 c476 -1 607 2 604 12 -2 6 -36 113 -75 237 -40 124 -94 293 -120 375 -27 83
-63 195 -80 250 -18 55 -38 118 -45 140 -8 22 -62 191 -120 375 -58 184 -108
341 -110 348 -3 6 -17 12 -32 13 -131 4 -1156 3 -1171 -1z"/>
<path d="M4587 5402 c-24 -5 -40 56 119 -441 47 -146 117 -365 155 -486 39
-121 81 -251 94 -290 12 -38 35 -108 49 -155 29 -92 64 -201 176 -550 40 -124
92 -288 117 -365 24 -77 48 -151 53 -165 5 -14 39 -119 75 -235 37 -115 87
-273 112 -350 87 -271 122 -382 218 -682 22 -70 30 -83 48 -84 12 0 286 -1
609 -2 584 -2 588 -2 582 18 -13 43 -67 213 -84 265 -10 30 -51 156 -90 280
-40 124 -91 286 -115 360 -60 187 -190 593 -232 725 -19 61 -41 128 -48 150
-13 37 -118 366 -187 585 -16 52 -36 113 -43 135 -8 22 -51 155 -95 295 -82
258 -111 348 -239 746 -39 121 -71 226 -71 232 0 7 -8 12 -17 13 -62 2 -1173
3 -1186 1z"/>
<path d="M2183 3337 c2 -7 11 -34 20 -62 44 -139 171 -537 187 -585 10 -30 46
-143 80 -250 34 -107 65 -206 70 -220 9 -25 134 -417 172 -540 11 -36 24 -69
28 -74 6 -6 913 -12 1176 -7 l41 1 -48 147 c-120 371 -183 569 -185 578 -1 6
-29 93 -62 195 -155 482 -197 612 -226 705 -17 55 -35 106 -39 113 -12 18
-1221 17 -1214 -1z"/>
<path d="M3710 3322 c18 -59 69 -220 83 -262 8 -25 43 -133 77 -240 34 -107
79 -249 100 -315 22 -66 59 -183 84 -260 25 -77 75 -233 111 -347 37 -114 66
-210 66 -213 0 -2 8 -23 17 -46 l18 -42 570 1 c313 1 586 1 606 2 l37 0 -29
88 c-25 77 -67 206 -222 692 -22 69 -61 193 -88 275 -40 123 -126 393 -206
647 l-15 47 -609 0 -608 0 8 -27z"/>
</g>
</svg>
